<svg width="1200" height="760" viewBox="0 0 1200 760" fill="none" xmlns="http://www.w3.org/2000/svg">
  <rect width="1200" height="760" rx="32" fill="#F6EFE2"/>
  <rect x="28" y="28" width="1144" height="704" rx="28" fill="#FFF9EF" stroke="#D8C7A4"/>
  <text x="64" y="92" fill="#143451" font-family="Georgia, serif" font-size="42" font-weight="700">Option A: Heritage Shields</text>
  <text x="64" y="126" fill="#7A6850" font-family="Arial, sans-serif" font-size="22">Warm church palette, classic badges, strong leadership feel</text>

  <text x="64" y="190" fill="#143451" font-family="Arial, sans-serif" font-size="28" font-weight="700">Roles</text>
  <text x="64" y="438" fill="#143451" font-family="Arial, sans-serif" font-size="28" font-weight="700">Teams</text>

  <g transform="translate(64 220)">
    <g transform="translate(0 0)">
      <rect width="190" height="170" rx="24" fill="#FBF5EA" stroke="#D9C9AA"/>
      <path d="M95 18L146 40V86C146 118 122 146 95 154C68 146 44 118 44 86V40L95 18Z" fill="#1F5560"/>
      <circle cx="95" cy="74" r="22" fill="#F7D392"/>
      <path d="M95 48V100M69 74H121" stroke="#FFF8EE" stroke-width="10" stroke-linecap="round"/>
      <text x="95" y="132" text-anchor="middle" fill="#143451" font-family="Arial, sans-serif" font-size="18" font-weight="700">Super Admin</text>
    </g>
    <g transform="translate(208 0)">
      <rect width="190" height="170" rx="24" fill="#FBF5EA" stroke="#D9C9AA"/>
      <path d="M95 18L146 40V86C146 118 122 146 95 154C68 146 44 118 44 86V40L95 18Z" fill="#A44A39"/>
      <rect x="67" y="56" width="56" height="44" rx="10" fill="#FFF8EE"/>
      <path d="M95 40V58" stroke="#FFF8EE" stroke-width="10" stroke-linecap="round"/>
      <path d="M77 78H113" stroke="#A44A39" stroke-width="8" stroke-linecap="round"/>
      <text x="95" y="132" text-anchor="middle" fill="#143451" font-family="Arial, sans-serif" font-size="18" font-weight="700">Church Admin</text>
    </g>
    <g transform="translate(416 0)">
      <rect width="190" height="170" rx="24" fill="#FBF5EA" stroke="#D9C9AA"/>
      <path d="M95 18L146 40V86C146 118 122 146 95 154C68 146 44 118 44 86V40L95 18Z" fill="#2D6A4F"/>
      <circle cx="95" cy="70" r="20" fill="#FFF8EE"/>
      <path d="M77 92L95 58L113 92" stroke="#2D6A4F" stroke-width="8" stroke-linecap="round" stroke-linejoin="round"/>
      <text x="95" y="132" text-anchor="middle" fill="#143451" font-family="Arial, sans-serif" font-size="18" font-weight="700">Team Leader</text>
    </g>
    <g transform="translate(624 0)">
      <rect width="190" height="170" rx="24" fill="#FBF5EA" stroke="#D9C9AA"/>
      <path d="M95 18L146 40V86C146 118 122 146 95 154C68 146 44 118 44 86V40L95 18Z" fill="#C28B2C"/>
      <circle cx="81" cy="68" r="12" fill="#FFF8EE"/>
      <circle cx="109" cy="68" r="12" fill="#FFF8EE"/>
      <path d="M68 98C73 84 89 80 95 80C101 80 117 84 122 98" stroke="#FFF8EE" stroke-width="8" stroke-linecap="round"/>
      <text x="95" y="132" text-anchor="middle" fill="#143451" font-family="Arial, sans-serif" font-size="18" font-weight="700">Volunteer</text>
    </g>
    <g transform="translate(832 0)">
      <rect width="190" height="170" rx="24" fill="#FBF5EA" stroke="#D9C9AA"/>
      <path d="M95 18L146 40V86C146 118 122 146 95 154C68 146 44 118 44 86V40L95 18Z" fill="#7E5B7D"/>
      <circle cx="95" cy="70" r="18" fill="#FFF8EE"/>
      <path d="M69 102C76 88 88 84 95 84C102 84 114 88 121 102" stroke="#FFF8EE" stroke-width="8" stroke-linecap="round"/>
      <text x="95" y="132" text-anchor="middle" fill="#143451" font-family="Arial, sans-serif" font-size="18" font-weight="700">Member</text>
    </g>
  </g>

  <g transform="translate(64 470)">
    <g transform="translate(0 0)">
      <rect width="240" height="180" rx="24" fill="#FBF5EA" stroke="#D9C9AA"/>
      <circle cx="62" cy="64" r="30" fill="#1F5560"/>
      <path d="M44 70C52 62 56 51 62 40C68 51 72 62 80 70" stroke="#FFF8EE" stroke-width="8" stroke-linecap="round" stroke-linejoin="round"/>
      <text x="120" y="74" fill="#143451" font-family="Arial, sans-serif" font-size="22" font-weight="700">Worship Team</text>
      <text x="28" y="132" fill="#7A6850" font-family="Arial, sans-serif" font-size="18">Music-led, graceful, front-stage feel</text>
    </g>
    <g transform="translate(260 0)">
      <rect width="240" height="180" rx="24" fill="#FBF5EA" stroke="#D9C9AA"/>
      <circle cx="62" cy="64" r="30" fill="#A44A39"/>
      <path d="M50 82L74 46" stroke="#FFF8EE" stroke-width="8" stroke-linecap="round"/>
      <circle cx="78" cy="42" r="8" fill="#FFF8EE"/>
      <text x="120" y="74" fill="#143451" font-family="Arial, sans-serif" font-size="22" font-weight="700">Speakers Team</text>
      <text x="28" y="132" fill="#7A6850" font-family="Arial, sans-serif" font-size="18">Voice-led, teaching and scripture focus</text>
    </g>
    <g transform="translate(520 0)">
      <rect width="240" height="180" rx="24" fill="#FBF5EA" stroke="#D9C9AA"/>
      <circle cx="62" cy="64" r="30" fill="#C28B2C"/>
      <path d="M50 50H74L68 84H56L50 50Z" fill="#FFF8EE"/>
      <text x="120" y="74" fill="#143451" font-family="Arial, sans-serif" font-size="22" font-weight="700">Food Team</text>
      <text x="28" y="132" fill="#7A6850" font-family="Arial, sans-serif" font-size="18">Hospitality icon with a serving cup</text>
    </g>
    <g transform="translate(780 0)">
      <rect width="240" height="180" rx="24" fill="#FBF5EA" stroke="#D9C9AA"/>
      <circle cx="62" cy="64" r="30" fill="#2D6A4F"/>
      <rect x="46" y="46" width="32" height="36" rx="6" fill="#FFF8EE"/>
      <path d="M50 56H74M50 64H70M50 72H66" stroke="#2D6A4F" stroke-width="4" stroke-linecap="round"/>
      <text x="120" y="74" fill="#143451" font-family="Arial, sans-serif" font-size="22" font-weight="700">Sunday School</text>
      <text x="28" y="132" fill="#7A6850" font-family="Arial, sans-serif" font-size="18">Lesson card icon with an inviting tone</text>
    </g>
  </g>
</svg>
