<svg width="1320" height="760" viewBox="0 0 1320 760" fill="none" xmlns="http://www.w3.org/2000/svg">
  <rect width="1320" height="760" rx="28" fill="#F5F0E5"/>
  <rect x="24" y="24" width="1272" height="712" rx="24" fill="#FFF9EF" stroke="#D9C9A7"/>
  <text x="56" y="84" fill="#173754" font-family="Georgia, serif" font-size="38" font-weight="700">Team Icon Redesign A</text>
  <text x="56" y="116" fill="#7C6A54" font-family="Arial, sans-serif" font-size="20">Clean geometric line system with stronger symbolism</text>

  <defs>
    <g id="cardA">
      <rect width="232" height="252" rx="24" fill="#FFFCF6" stroke="#D9C9A7"/>
    </g>
    <g id="worshipA">
      <circle cx="-24" cy="-18" r="8" stroke="#173754" stroke-width="5.5"/>
      <path d="M-36 18C-32 1 -28 -7 -24 -7C-20 -7 -16 1 -12 18" stroke="#173754" stroke-width="5.5" stroke-linecap="round"/>
      <circle cx="0" cy="-30" r="9" stroke="#173754" stroke-width="5.5"/>
      <path d="M-14 18C-10 -2 -5 -12 0 -12C5 -12 10 -2 14 18" stroke="#173754" stroke-width="5.5" stroke-linecap="round"/>
      <circle cx="24" cy="-18" r="8" stroke="#173754" stroke-width="5.5"/>
      <path d="M12 18C16 1 20 -7 24 -7C28 -7 32 1 36 18" stroke="#173754" stroke-width="5.5" stroke-linecap="round"/>
      <path d="M0 24V50" stroke="#B98945" stroke-width="5.5" stroke-linecap="round"/>
      <path d="M-14 38H14" stroke="#B98945" stroke-width="5.5" stroke-linecap="round"/>
      <path d="M48 -24C57 -32 68 -24 68 -14" stroke="#2D6A4F" stroke-width="4.5" stroke-linecap="round"/>
    </g>
    <g id="speakersA">
      <circle cx="0" cy="-34" r="10" stroke="#173754" stroke-width="5.5"/>
      <path d="M-12 -12C-9 -22 -4 -27 0 -27C4 -27 9 -22 12 -12" stroke="#173754" stroke-width="5.5" stroke-linecap="round"/>
      <path d="M-24 32H24" stroke="#173754" stroke-width="5.5" stroke-linecap="round"/>
      <path d="M-16 32L-8 2H8L16 32" stroke="#173754" stroke-width="5.5" stroke-linejoin="round"/>
      <path d="M30 -8C42 -13 50 -7 50 3" stroke="#B98945" stroke-width="4.5" stroke-linecap="round"/>
      <path d="M38 -24C54 -31 66 -18 66 1" stroke="#B98945" stroke-width="4.5" stroke-linecap="round"/>
    </g>
    <g id="techA">
      <rect x="-42" y="-34" width="62" height="42" rx="8" stroke="#173754" stroke-width="5.5"/>
      <path d="M-12 12V22" stroke="#173754" stroke-width="5.5" stroke-linecap="round"/>
      <path d="M-26 28H2" stroke="#173754" stroke-width="5.5" stroke-linecap="round"/>
      <path d="M34 -28V16" stroke="#B98945" stroke-width="5.5" stroke-linecap="round"/>
      <circle cx="34" cy="-6" r="8" stroke="#B98945" stroke-width="4.5"/>
      <path d="M56 -22V26" stroke="#2D6A4F" stroke-width="5.5" stroke-linecap="round"/>
      <circle cx="56" cy="8" r="8" stroke="#2D6A4F" stroke-width="4.5"/>
      <path d="M-28 -14H4" stroke="#173754" stroke-width="4" stroke-linecap="round"/>
      <path d="M-28 0H-4" stroke="#173754" stroke-width="4" stroke-linecap="round"/>
    </g>
    <g id="schoolA">
      <rect x="-34" y="-20" width="68" height="46" rx="6" stroke="#173754" stroke-width="5.5"/>
      <path d="M0 -20V26" stroke="#173754" stroke-width="4.5"/>
      <path d="M-24 -8H-8" stroke="#B98945" stroke-width="4.5" stroke-linecap="round"/>
      <path d="M-24 4H-8" stroke="#B98945" stroke-width="4.5" stroke-linecap="round"/>
      <path d="M8 -8H24" stroke="#B98945" stroke-width="4.5" stroke-linecap="round"/>
      <path d="M8 4H24" stroke="#B98945" stroke-width="4.5" stroke-linecap="round"/>
      <circle cx="-20" cy="-34" r="7" stroke="#2D6A4F" stroke-width="4.5"/>
      <circle cx="20" cy="-34" r="7" stroke="#2D6A4F" stroke-width="4.5"/>
      <path d="M-30 44C-24 34 -16 30 -8 30C0 30 8 34 14 44" stroke="#2D6A4F" stroke-width="4.5" stroke-linecap="round"/>
    </g>
    <g id="foodA">
      <circle cx="0" cy="0" r="24" stroke="#173754" stroke-width="5.5"/>
      <circle cx="0" cy="0" r="13" stroke="#173754" stroke-width="4.5"/>
      <path d="M-42 -22V24" stroke="#B98945" stroke-width="5.5" stroke-linecap="round"/>
      <path d="M-48 -22H-36" stroke="#B98945" stroke-width="5.5" stroke-linecap="round"/>
      <path d="M-48 -8H-36" stroke="#B98945" stroke-width="5.5" stroke-linecap="round"/>
      <path d="M42 -24V24" stroke="#2D6A4F" stroke-width="5.5" stroke-linecap="round"/>
      <ellipse cx="42" cy="-24" rx="5" ry="3.5" stroke="#2D6A4F" stroke-width="4.5"/>
      <path d="M-10 34H10" stroke="#173754" stroke-width="4.5" stroke-linecap="round"/>
    </g>
  </defs>

  <g transform="translate(56 166)">
    <g transform="translate(0 0)">
      <use href="#cardA"/>
      <g transform="translate(116 104)"><use href="#worshipA"/></g>
      <text x="24" y="198" fill="#173754" font-family="Arial, sans-serif" font-size="23" font-weight="700">Worship Team</text>
      <text x="24" y="224" fill="#7C6A54" font-family="Arial, sans-serif" font-size="15">Choir and praise leadership</text>
    </g>
    <g transform="translate(248 0)">
      <use href="#cardA"/>
      <g transform="translate(116 104)"><use href="#speakersA"/></g>
      <text x="24" y="198" fill="#173754" font-family="Arial, sans-serif" font-size="23" font-weight="700">Speakers Team</text>
      <text x="24" y="224" fill="#7C6A54" font-family="Arial, sans-serif" font-size="15">Pulpit and voice emphasis</text>
    </g>
    <g transform="translate(496 0)">
      <use href="#cardA"/>
      <g transform="translate(116 104)"><use href="#techA"/></g>
      <text x="24" y="198" fill="#173754" font-family="Arial, sans-serif" font-size="23" font-weight="700">Tech Team</text>
      <text x="24" y="224" fill="#7C6A54" font-family="Arial, sans-serif" font-size="15">Projection and sound desk</text>
    </g>
    <g transform="translate(744 0)">
      <use href="#cardA"/>
      <g transform="translate(116 104)"><use href="#schoolA"/></g>
      <text x="24" y="198" fill="#173754" font-family="Arial, sans-serif" font-size="23" font-weight="700">Sunday School Team</text>
      <text x="24" y="224" fill="#7C6A54" font-family="Arial, sans-serif" font-size="15">Book and children focus</text>
    </g>
    <g transform="translate(992 0)">
      <use href="#cardA"/>
      <g transform="translate(116 104)"><use href="#foodA"/></g>
      <text x="24" y="198" fill="#173754" font-family="Arial, sans-serif" font-size="23" font-weight="700">Food Team</text>
      <text x="24" y="224" fill="#7C6A54" font-family="Arial, sans-serif" font-size="15">Meal and serving symbol</text>
    </g>
  </g>
</svg>
