<svg width="1320" height="760" viewBox="0 0 1320 760" fill="none" xmlns="http://www.w3.org/2000/svg">
  <rect width="1320" height="760" rx="28" fill="#F4F2FA"/>
  <rect x="24" y="24" width="1272" height="712" rx="24" fill="#FFFCFF" stroke="#D4CDE9"/>
  <text x="56" y="84" fill="#1C2746" font-family="Georgia, serif" font-size="38" font-weight="700">Team Icon Redesign C</text>
  <text x="56" y="116" fill="#706985" font-family="Arial, sans-serif" font-size="20">Modern crest cards with bolder ceremonial forms</text>

  <defs>
    <g id="cardC">
      <rect width="232" height="252" rx="24" fill="#FFFFFF" stroke="#D4CDE9"/>
    </g>
    <g id="crest">
      <path d="M0 -58L42 -42V2C42 28 24 48 0 58C-24 48 -42 28 -42 2V-42L0 -58Z" fill="#F7F3FF" stroke="#D4CDE9" stroke-width="3"/>
    </g>
    <g id="worshipC">
      <use href="#crest"/>
      <circle cx="0" cy="-22" r="8.5" stroke="#1C2746" stroke-width="5"/>
      <path d="M-12 -2C-8 -12 -4 -16 0 -16C4 -16 8 -12 12 -2" stroke="#1C2746" stroke-width="5" stroke-linecap="round"/>
      <path d="M0 2V28" stroke="#B88733" stroke-width="5" stroke-linecap="round"/>
      <path d="M-14 16H14" stroke="#B88733" stroke-width="5" stroke-linecap="round"/>
      <path d="M-22 34C-16 28 -8 24 0 24C8 24 16 28 22 34" stroke="#2D7166" stroke-width="4" stroke-linecap="round"/>
    </g>
    <g id="speakersC">
      <use href="#crest"/>
      <path d="M-18 24H18" stroke="#1C2746" stroke-width="5" stroke-linecap="round"/>
      <path d="M-12 24L-4 -2H4L12 24" stroke="#1C2746" stroke-width="5" stroke-linejoin="round"/>
      <circle cx="0" cy="-22" r="8" stroke="#1C2746" stroke-width="5"/>
      <path d="M22 -8C30 -12 36 -7 36 0" stroke="#B88733" stroke-width="4" stroke-linecap="round"/>
      <path d="M26 -22C38 -28 48 -18 48 -2" stroke="#B88733" stroke-width="4" stroke-linecap="round"/>
    </g>
    <g id="techC">
      <use href="#crest"/>
      <rect x="-26" y="-18" width="34" height="24" rx="5" stroke="#1C2746" stroke-width="5"/>
      <path d="M-8 10V18" stroke="#1C2746" stroke-width="5" stroke-linecap="round"/>
      <path d="M-18 24H2" stroke="#1C2746" stroke-width="5" stroke-linecap="round"/>
      <path d="M20 -22V18" stroke="#B88733" stroke-width="5" stroke-linecap="round"/>
      <circle cx="20" cy="-2" r="7" stroke="#B88733" stroke-width="4"/>
      <path d="M34 -14V28" stroke="#2D7166" stroke-width="5" stroke-linecap="round"/>
      <circle cx="34" cy="12" r="7" stroke="#2D7166" stroke-width="4"/>
    </g>
    <g id="schoolC">
      <use href="#crest"/>
      <rect x="-24" y="-14" width="48" height="30" rx="4" stroke="#1C2746" stroke-width="5"/>
      <path d="M0 -14V16" stroke="#1C2746" stroke-width="4"/>
      <path d="M-16 -4H-6" stroke="#B88733" stroke-width="4" stroke-linecap="round"/>
      <path d="M-16 6H-6" stroke="#B88733" stroke-width="4" stroke-linecap="round"/>
      <path d="M6 -4H16" stroke="#B88733" stroke-width="4" stroke-linecap="round"/>
      <path d="M6 6H16" stroke="#B88733" stroke-width="4" stroke-linecap="round"/>
      <path d="M-20 28C-14 22 -8 18 0 18C8 18 14 22 20 28" stroke="#2D7166" stroke-width="4" stroke-linecap="round"/>
    </g>
    <g id="foodC">
      <use href="#crest"/>
      <circle cx="0" cy="0" r="18" stroke="#1C2746" stroke-width="5"/>
      <circle cx="0" cy="0" r="10" stroke="#1C2746" stroke-width="4"/>
      <path d="M-28 -18V18" stroke="#B88733" stroke-width="5" stroke-linecap="round"/>
      <path d="M-33 -18H-23" stroke="#B88733" stroke-width="5" stroke-linecap="round"/>
      <path d="M-33 -6H-23" stroke="#B88733" stroke-width="5" stroke-linecap="round"/>
      <path d="M28 -20V18" stroke="#2D7166" stroke-width="5" stroke-linecap="round"/>
      <ellipse cx="28" cy="-20" rx="4" ry="3" stroke="#2D7166" stroke-width="4"/>
    </g>
  </defs>

  <g transform="translate(56 166)">
    <g transform="translate(0 0)">
      <use href="#cardC"/>
      <g transform="translate(116 106)"><use href="#worshipC"/></g>
      <text x="24" y="198" fill="#1C2746" font-family="Arial, sans-serif" font-size="23" font-weight="700">Worship Team</text>
      <text x="24" y="224" fill="#706985" font-family="Arial, sans-serif" font-size="15">Crest-based praise mark</text>
    </g>
    <g transform="translate(248 0)">
      <use href="#cardC"/>
      <g transform="translate(116 106)"><use href="#speakersC"/></g>
      <text x="24" y="198" fill="#1C2746" font-family="Arial, sans-serif" font-size="23" font-weight="700">Speakers Team</text>
      <text x="24" y="224" fill="#706985" font-family="Arial, sans-serif" font-size="15">Ceremonial pulpit crest</text>
    </g>
    <g transform="translate(496 0)">
      <use href="#cardC"/>
      <g transform="translate(116 106)"><use href="#techC"/></g>
      <text x="24" y="198" fill="#1C2746" font-family="Arial, sans-serif" font-size="23" font-weight="700">Tech Team</text>
      <text x="24" y="224" fill="#706985" font-family="Arial, sans-serif" font-size="15">Broadcast and control motif</text>
    </g>
    <g transform="translate(744 0)">
      <use href="#cardC"/>
      <g transform="translate(116 106)"><use href="#schoolC"/></g>
      <text x="24" y="198" fill="#1C2746" font-family="Arial, sans-serif" font-size="23" font-weight="700">Sunday School Team</text>
      <text x="24" y="224" fill="#706985" font-family="Arial, sans-serif" font-size="15">Teaching crest with book</text>
    </g>
    <g transform="translate(992 0)">
      <use href="#cardC"/>
      <g transform="translate(116 106)"><use href="#foodC"/></g>
      <text x="24" y="198" fill="#1C2746" font-family="Arial, sans-serif" font-size="23" font-weight="700">Food Team</text>
      <text x="24" y="224" fill="#706985" font-family="Arial, sans-serif" font-size="15">Hospitality crest</text>
    </g>
  </g>
</svg>
