<svg width="1320" height="760" viewBox="0 0 1320 760" fill="none" xmlns="http://www.w3.org/2000/svg">
  <rect width="1320" height="760" rx="28" fill="#F7F3EA"/>
  <rect x="24" y="24" width="1272" height="712" rx="24" fill="#FFFDF8" stroke="#D8CCB7"/>
  <text x="56" y="84" fill="#1F3044" font-family="Georgia, serif" font-size="38" font-weight="700">Team Icon Redesign D</text>
  <text x="56" y="116" fill="#7A6F61" font-family="Arial, sans-serif" font-size="20">Architectural symbols with cleaner church motifs</text>

  <defs>
    <g id="cardD">
      <rect width="232" height="252" rx="24" fill="#FFFFFF" stroke="#D8CCB7"/>
    </g>
    <g id="worshipD">
      <path d="M0 -38V-6" stroke="#1F3044" stroke-width="5.5" stroke-linecap="round"/>
      <path d="M-14 -20H14" stroke="#1F3044" stroke-width="5.5" stroke-linecap="round"/>
      <path d="M-34 34C-26 10 -16 -2 0 -2C16 -2 26 10 34 34" stroke="#1F3044" stroke-width="5.5" stroke-linecap="round"/>
      <path d="M-44 18H-22" stroke="#B88733" stroke-width="4.5" stroke-linecap="round"/>
      <path d="M22 18H44" stroke="#B88733" stroke-width="4.5" stroke-linecap="round"/>
      <circle cx="-16" cy="2" r="6.5" stroke="#2E7466" stroke-width="4.5"/>
      <circle cx="16" cy="2" r="6.5" stroke="#2E7466" stroke-width="4.5"/>
    </g>
    <g id="speakersD">
      <path d="M-24 30H24" stroke="#1F3044" stroke-width="5.5" stroke-linecap="round"/>
      <path d="M-16 30L-8 -2H8L16 30" stroke="#1F3044" stroke-width="5.5" stroke-linejoin="round"/>
      <path d="M0 -34V-8" stroke="#B88733" stroke-width="5" stroke-linecap="round"/>
      <circle cx="0" cy="-40" r="7.5" stroke="#1F3044" stroke-width="5"/>
      <path d="M28 -8C38 -12 46 -7 46 1" stroke="#2E7466" stroke-width="4.5" stroke-linecap="round"/>
      <path d="M34 -22C48 -28 58 -18 58 -1" stroke="#2E7466" stroke-width="4.5" stroke-linecap="round"/>
    </g>
    <g id="techD">
      <rect x="-34" y="-26" width="48" height="34" rx="6" stroke="#1F3044" stroke-width="5.5"/>
      <path d="M-10 12V20" stroke="#1F3044" stroke-width="5.5" stroke-linecap="round"/>
      <path d="M-20 26H0" stroke="#1F3044" stroke-width="5.5" stroke-linecap="round"/>
      <path d="M26 -30V16" stroke="#B88733" stroke-width="5.5" stroke-linecap="round"/>
      <circle cx="26" cy="-8" r="8" stroke="#B88733" stroke-width="4.5"/>
      <path d="M48 -22V26" stroke="#2E7466" stroke-width="5.5" stroke-linecap="round"/>
      <circle cx="48" cy="10" r="8" stroke="#2E7466" stroke-width="4.5"/>
      <path d="M-22 -12H2" stroke="#1F3044" stroke-width="4" stroke-linecap="round"/>
    </g>
    <g id="schoolD">
      <rect x="-30" y="-18" width="60" height="38" rx="5" stroke="#1F3044" stroke-width="5.5"/>
      <path d="M0 -18V20" stroke="#1F3044" stroke-width="4.5"/>
      <path d="M-18 -4H-8" stroke="#B88733" stroke-width="4.5" stroke-linecap="round"/>
      <path d="M-18 8H-8" stroke="#B88733" stroke-width="4.5" stroke-linecap="round"/>
      <path d="M8 -4H18" stroke="#B88733" stroke-width="4.5" stroke-linecap="round"/>
      <path d="M8 8H18" stroke="#B88733" stroke-width="4.5" stroke-linecap="round"/>
      <path d="M-26 34C-16 24 -8 20 0 20C8 20 16 24 26 34" stroke="#2E7466" stroke-width="4.5" stroke-linecap="round"/>
    </g>
    <g id="foodD">
      <circle cx="0" cy="0" r="21" stroke="#1F3044" stroke-width="5.5"/>
      <circle cx="0" cy="0" r="11" stroke="#1F3044" stroke-width="4.5"/>
      <path d="M-34 -18V18" stroke="#B88733" stroke-width="5.5" stroke-linecap="round"/>
      <path d="M-39 -18H-29" stroke="#B88733" stroke-width="5.5" stroke-linecap="round"/>
      <path d="M-39 -6H-29" stroke="#B88733" stroke-width="5.5" stroke-linecap="round"/>
      <path d="M34 -20V18" stroke="#2E7466" stroke-width="5.5" stroke-linecap="round"/>
      <ellipse cx="34" cy="-20" rx="4" ry="3" stroke="#2E7466" stroke-width="4.5"/>
      <path d="M-10 30H10" stroke="#1F3044" stroke-width="4" stroke-linecap="round"/>
    </g>
  </defs>

  <g transform="translate(56 166)">
    <g transform="translate(0 0)"><use href="#cardD"/><g transform="translate(116 106)"><use href="#worshipD"/></g><text x="24" y="198" fill="#1F3044" font-family="Arial, sans-serif" font-size="23" font-weight="700">Worship Team</text><text x="24" y="224" fill="#7A6F61" font-family="Arial, sans-serif" font-size="15">Cross and choir arc</text></g>
    <g transform="translate(248 0)"><use href="#cardD"/><g transform="translate(116 106)"><use href="#speakersD"/></g><text x="24" y="198" fill="#1F3044" font-family="Arial, sans-serif" font-size="23" font-weight="700">Speakers Team</text><text x="24" y="224" fill="#7A6F61" font-family="Arial, sans-serif" font-size="15">Pulpit and voice waves</text></g>
    <g transform="translate(496 0)"><use href="#cardD"/><g transform="translate(116 106)"><use href="#techD"/></g><text x="24" y="198" fill="#1F3044" font-family="Arial, sans-serif" font-size="23" font-weight="700">Tech Team</text><text x="24" y="224" fill="#7A6F61" font-family="Arial, sans-serif" font-size="15">Screen and mixer</text></g>
    <g transform="translate(744 0)"><use href="#cardD"/><g transform="translate(116 106)"><use href="#schoolD"/></g><text x="24" y="198" fill="#1F3044" font-family="Arial, sans-serif" font-size="23" font-weight="700">Sunday School Team</text><text x="24" y="224" fill="#7A6F61" font-family="Arial, sans-serif" font-size="15">Book and class arc</text></g>
    <g transform="translate(992 0)"><use href="#cardD"/><g transform="translate(116 106)"><use href="#foodD"/></g><text x="24" y="198" fill="#1F3044" font-family="Arial, sans-serif" font-size="23" font-weight="700">Food Team</text><text x="24" y="224" fill="#7A6F61" font-family="Arial, sans-serif" font-size="15">Plate and service tools</text></g>
  </g>
</svg>
