<svg width="1320" height="760" viewBox="0 0 1320 760" fill="none" xmlns="http://www.w3.org/2000/svg">
  <rect width="1320" height="760" rx="28" fill="#F6F5F0"/>
  <rect x="24" y="24" width="1272" height="712" rx="24" fill="#FFFDF8" stroke="#D6D1C5"/>
  <text x="56" y="84" fill="#1C2E3C" font-family="Georgia, serif" font-size="38" font-weight="700">Team Icon Redesign F</text>
  <text x="56" y="116" fill="#726C62" font-family="Arial, sans-serif" font-size="20">Circular seal system with stronger team emblems</text>

  <defs>
    <g id="cardF">
      <rect width="232" height="252" rx="24" fill="#FFFFFF" stroke="#D6D1C5"/>
    </g>
    <g id="seal">
      <circle cx="0" cy="0" r="56" fill="#FBF9F2" stroke="#D6D1C5" stroke-width="3"/>
      <circle cx="0" cy="0" r="46" fill="none" stroke="#E9E2D3" stroke-width="2"/>
    </g>
    <g id="worshipF">
      <use href="#seal"/>
      <circle cx="0" cy="-20" r="8.5" stroke="#1C2E3C" stroke-width="5"/>
      <path d="M-12 -2C-8 -12 -4 -16 0 -16C4 -16 8 -12 12 -2" stroke="#1C2E3C" stroke-width="5" stroke-linecap="round"/>
      <path d="M0 2V30" stroke="#B68B43" stroke-width="5" stroke-linecap="round"/>
      <path d="M-14 16H14" stroke="#B68B43" stroke-width="5" stroke-linecap="round"/>
      <path d="M-30 28C-20 18 -10 12 0 12C10 12 20 18 30 28" stroke="#2C7567" stroke-width="4.5" stroke-linecap="round"/>
    </g>
    <g id="speakersF">
      <use href="#seal"/>
      <path d="M-18 28H18" stroke="#1C2E3C" stroke-width="5" stroke-linecap="round"/>
      <path d="M-12 28L-4 0H4L12 28" stroke="#1C2E3C" stroke-width="5" stroke-linejoin="round"/>
      <circle cx="0" cy="-22" r="8" stroke="#1C2E3C" stroke-width="5"/>
      <path d="M22 -8C30 -12 36 -7 36 0" stroke="#B68B43" stroke-width="4.5" stroke-linecap="round"/>
      <path d="M28 -20C40 -26 48 -18 48 -4" stroke="#B68B43" stroke-width="4.5" stroke-linecap="round"/>
    </g>
    <g id="techF">
      <use href="#seal"/>
      <rect x="-26" y="-18" width="34" height="24" rx="5" stroke="#1C2E3C" stroke-width="5"/>
      <path d="M-8 10V18" stroke="#1C2E3C" stroke-width="5" stroke-linecap="round"/>
      <path d="M-18 24H2" stroke="#1C2E3C" stroke-width="5" stroke-linecap="round"/>
      <path d="M20 -24V16" stroke="#B68B43" stroke-width="5" stroke-linecap="round"/>
      <circle cx="20" cy="-4" r="7" stroke="#B68B43" stroke-width="4.5"/>
      <path d="M36 -18V24" stroke="#2C7567" stroke-width="5" stroke-linecap="round"/>
      <circle cx="36" cy="10" r="7" stroke="#2C7567" stroke-width="4.5"/>
    </g>
    <g id="schoolF">
      <use href="#seal"/>
      <rect x="-24" y="-16" width="48" height="32" rx="4" stroke="#1C2E3C" stroke-width="5"/>
      <path d="M0 -16V16" stroke="#1C2E3C" stroke-width="4.5"/>
      <path d="M-14 -4H-6" stroke="#B68B43" stroke-width="4.5" stroke-linecap="round"/>
      <path d="M-14 6H-6" stroke="#B68B43" stroke-width="4.5" stroke-linecap="round"/>
      <path d="M6 -4H14" stroke="#B68B43" stroke-width="4.5" stroke-linecap="round"/>
      <path d="M6 6H14" stroke="#B68B43" stroke-width="4.5" stroke-linecap="round"/>
      <path d="M-20 28C-12 22 -6 18 0 18C6 18 12 22 20 28" stroke="#2C7567" stroke-width="4.5" stroke-linecap="round"/>
    </g>
    <g id="foodF">
      <use href="#seal"/>
      <circle cx="0" cy="0" r="18" stroke="#1C2E3C" stroke-width="5"/>
      <circle cx="0" cy="0" r="9" stroke="#1C2E3C" stroke-width="4"/>
      <path d="M-28 -16V16" stroke="#B68B43" stroke-width="5" stroke-linecap="round"/>
      <path d="M-33 -16H-23" stroke="#B68B43" stroke-width="5" stroke-linecap="round"/>
      <path d="M-33 -5H-23" stroke="#B68B43" stroke-width="5" stroke-linecap="round"/>
      <path d="M28 -18V16" stroke="#2C7567" stroke-width="5" stroke-linecap="round"/>
      <ellipse cx="28" cy="-18" rx="4" ry="3" stroke="#2C7567" stroke-width="4.5"/>
    </g>
  </defs>

  <g transform="translate(56 166)">
    <g transform="translate(0 0)"><use href="#cardF"/><g transform="translate(116 108)"><use href="#worshipF"/></g><text x="24" y="198" fill="#1C2E3C" font-family="Arial, sans-serif" font-size="23" font-weight="700">Worship Team</text><text x="24" y="224" fill="#726C62" font-family="Arial, sans-serif" font-size="15">Seal-style worship mark</text></g>
    <g transform="translate(248 0)"><use href="#cardF"/><g transform="translate(116 108)"><use href="#speakersF"/></g><text x="24" y="198" fill="#1C2E3C" font-family="Arial, sans-serif" font-size="23" font-weight="700">Speakers Team</text><text x="24" y="224" fill="#726C62" font-family="Arial, sans-serif" font-size="15">Public speaking seal</text></g>
    <g transform="translate(496 0)"><use href="#cardF"/><g transform="translate(116 108)"><use href="#techF"/></g><text x="24" y="198" fill="#1C2E3C" font-family="Arial, sans-serif" font-size="23" font-weight="700">Tech Team</text><text x="24" y="224" fill="#726C62" font-family="Arial, sans-serif" font-size="15">Audio and projection seal</text></g>
    <g transform="translate(744 0)"><use href="#cardF"/><g transform="translate(116 108)"><use href="#schoolF"/></g><text x="24" y="198" fill="#1C2E3C" font-family="Arial, sans-serif" font-size="23" font-weight="700">Sunday School Team</text><text x="24" y="224" fill="#726C62" font-family="Arial, sans-serif" font-size="15">Teaching and children seal</text></g>
    <g transform="translate(992 0)"><use href="#cardF"/><g transform="translate(116 108)"><use href="#foodF"/></g><text x="24" y="198" fill="#1C2E3C" font-family="Arial, sans-serif" font-size="23" font-weight="700">Food Team</text><text x="24" y="224" fill="#726C62" font-family="Arial, sans-serif" font-size="15">Fellowship meal seal</text></g>
  </g>
</svg>
