<svg width="1280" height="380" viewBox="0 0 1280 380" fill="none" xmlns="http://www.w3.org/2000/svg">
  <rect width="1280" height="380" rx="28" fill="#F7F2EA"/>
  <rect x="20" y="20" width="1240" height="340" rx="24" fill="#FFFCF7" stroke="#D8CCBE"/>
  <text x="48" y="70" fill="#143451" font-family="Georgia, serif" font-size="34" font-weight="700">Team Icons C</text>
  <text x="48" y="102" fill="#7C6A56" font-family="Arial, sans-serif" font-size="18">Decorative badge set with stronger emblem feel</text>

  <defs>
    <g id="cardc">
      <rect width="220" height="210" rx="22" fill="#FFFDF9" stroke="#D9C9B7"/>
    </g>
    <g id="badge">
      <circle cx="0" cy="0" r="46" fill="#FFF7EA" stroke="#D4B78B" stroke-width="3"/>
    </g>
  </defs>

  <g transform="translate(44 126)" fill="none" stroke="#143451" stroke-linecap="round" stroke-linejoin="round">
    <g transform="translate(0 0)">
      <use href="#cardc"/>
      <g transform="translate(110 78)">
        <use href="#badge"/>
        <circle cx="-18" cy="-6" r="6" stroke-width="4"/>
        <circle cx="0" cy="-14" r="6" stroke-width="4"/>
        <circle cx="18" cy="-6" r="6" stroke-width="4"/>
        <path d="M-28 22C-24 10 -21 6 -18 6C-15 6 -10 10 -6 22" stroke-width="4"/>
        <path d="M-8 16C-4 2 -1 -2 0 -2C2 -2 6 2 9 16" stroke-width="4"/>
        <path d="M8 22C12 10 15 6 18 6C21 6 26 10 30 22" stroke-width="4"/>
      </g>
      <text x="24" y="166" fill="#143451" font-family="Arial, sans-serif" font-size="20" font-weight="700" stroke="none">Worship Team</text>
    </g>

    <g transform="translate(236 0)">
      <use href="#cardc"/>
      <g transform="translate(110 78)">
        <use href="#badge"/>
        <circle cx="0" cy="-18" r="7" stroke-width="4"/>
        <path d="M-12 12H12L8 -8H-8L-12 12Z" stroke-width="4"/>
        <path d="M0 -4V12" stroke-width="4"/>
        <path d="M20 -8C28 -10 34 -5 36 4" stroke-width="4"/>
      </g>
      <text x="24" y="166" fill="#143451" font-family="Arial, sans-serif" font-size="20" font-weight="700" stroke="none">Speakers Team</text>
    </g>

    <g transform="translate(472 0)">
      <use href="#cardc"/>
      <g transform="translate(110 78)">
        <use href="#badge"/>
        <rect x="-28" y="-18" width="26" height="18" rx="3" stroke-width="4"/>
        <circle cx="18" cy="-6" r="6" stroke-width="4"/>
        <circle cx="34" cy="-6" r="6" stroke-width="4"/>
        <path d="M18 8V26" stroke-width="4"/>
        <path d="M34 8V26" stroke-width="4"/>
      </g>
      <text x="24" y="166" fill="#143451" font-family="Arial, sans-serif" font-size="20" font-weight="700" stroke="none">Tech Team</text>
    </g>

    <g transform="translate(708 0)">
      <use href="#cardc"/>
      <g transform="translate(110 78)">
        <use href="#badge"/>
        <circle cx="-24" cy="-4" r="6" stroke-width="4"/>
        <circle cx="-4" cy="-10" r="6" stroke-width="4"/>
        <circle cx="16" cy="-4" r="6" stroke-width="4"/>
        <circle cx="32" cy="-18" r="7" stroke-width="4"/>
        <path d="M-32 22C-28 10 -26 6 -24 6C-22 6 -18 10 -14 22" stroke-width="4"/>
        <path d="M-12 16C-8 4 -6 0 -4 0C-2 0 2 4 6 16" stroke-width="4"/>
        <path d="M8 22C12 10 14 6 16 6C18 6 22 10 26 22" stroke-width="4"/>
        <path d="M24 18C28 4 30 0 32 0C34 0 38 4 42 18" stroke-width="4"/>
      </g>
      <text x="24" y="166" fill="#143451" font-family="Arial, sans-serif" font-size="20" font-weight="700" stroke="none">Sunday School Team</text>
    </g>

    <g transform="translate(944 0)">
      <use href="#cardc"/>
      <g transform="translate(110 78)">
        <use href="#badge"/>
        <circle cx="0" cy="0" r="18" stroke-width="4"/>
        <circle cx="0" cy="0" r="9" stroke-width="3.5"/>
        <path d="M-30 -18V18" stroke-width="4"/>
        <path d="M-36 -18H-24" stroke-width="4"/>
        <path d="M-36 -4H-26" stroke-width="4"/>
        <path d="M28 -18V18" stroke-width="4"/>
        <ellipse cx="28" cy="-18" rx="4.5" ry="3" stroke-width="3.5"/>
      </g>
      <text x="24" y="166" fill="#143451" font-family="Arial, sans-serif" font-size="20" font-weight="700" stroke="none">Food Team</text>
    </g>
  </g>
</svg>
