<svg width="1320" height="760" viewBox="0 0 1320 760" fill="none" xmlns="http://www.w3.org/2000/svg">
  <rect width="1320" height="760" rx="28" fill="#EEF4F2"/>
  <rect x="24" y="24" width="1272" height="712" rx="24" fill="#FAFFFD" stroke="#BFD3CB"/>
  <text x="56" y="84" fill="#16364B" font-family="Georgia, serif" font-size="38" font-weight="700">Team Icon Redesign B</text>
  <text x="56" y="116" fill="#617786" font-family="Arial, sans-serif" font-size="20">Soft badge system with distinct team silhouettes</text>

  <defs>
    <g id="cardB">
      <rect width="232" height="252" rx="24" fill="#FFFFFF" stroke="#BFD3CB"/>
    </g>
    <g id="badge">
      <circle cx="0" cy="0" r="58" fill="#F4FBF8" stroke="#D7E9E2" stroke-width="3"/>
    </g>
    <g id="worshipB">
      <use href="#badge"/>
      <path d="M-26 18C-20 -5 -10 -18 0 -18C10 -18 20 -5 26 18" stroke="#16364B" stroke-width="5.5" stroke-linecap="round"/>
      <circle cx="0" cy="-28" r="10" stroke="#16364B" stroke-width="5.5"/>
      <path d="M0 22V42" stroke="#BD8A37" stroke-width="5.5" stroke-linecap="round"/>
      <path d="M-14 34H14" stroke="#BD8A37" stroke-width="5.5" stroke-linecap="round"/>
      <path d="M-42 -2H-28" stroke="#2E7B69" stroke-width="4.5" stroke-linecap="round"/>
      <path d="M28 -2H42" stroke="#2E7B69" stroke-width="4.5" stroke-linecap="round"/>
    </g>
    <g id="speakersB">
      <use href="#badge"/>
      <path d="M-22 28H22" stroke="#16364B" stroke-width="5.5" stroke-linecap="round"/>
      <path d="M-14 28L-6 -2H6L14 28" stroke="#16364B" stroke-width="5.5" stroke-linejoin="round"/>
      <circle cx="0" cy="-26" r="9" stroke="#16364B" stroke-width="5.5"/>
      <path d="M-10 -8C-7 -17 -3 -21 0 -21C3 -21 7 -17 10 -8" stroke="#16364B" stroke-width="5.5" stroke-linecap="round"/>
      <path d="M30 -8C40 -12 48 -6 48 2" stroke="#BD8A37" stroke-width="4.5" stroke-linecap="round"/>
    </g>
    <g id="techB">
      <use href="#badge"/>
      <rect x="-34" y="-22" width="44" height="30" rx="7" stroke="#16364B" stroke-width="5.5"/>
      <path d="M-12 12V20" stroke="#16364B" stroke-width="5.5" stroke-linecap="round"/>
      <path d="M-24 26H0" stroke="#16364B" stroke-width="5.5" stroke-linecap="round"/>
      <path d="M22 -28V20" stroke="#BD8A37" stroke-width="5.5" stroke-linecap="round"/>
      <circle cx="22" cy="-4" r="8" stroke="#BD8A37" stroke-width="4.5"/>
      <path d="M42 -18V32" stroke="#2E7B69" stroke-width="5.5" stroke-linecap="round"/>
      <circle cx="42" cy="14" r="8" stroke="#2E7B69" stroke-width="4.5"/>
    </g>
    <g id="schoolB">
      <use href="#badge"/>
      <rect x="-28" y="-18" width="56" height="38" rx="5" stroke="#16364B" stroke-width="5.5"/>
      <path d="M0 -18V20" stroke="#16364B" stroke-width="4.5"/>
      <path d="M-18 -6H-6" stroke="#BD8A37" stroke-width="4.5" stroke-linecap="round"/>
      <path d="M-18 6H-6" stroke="#BD8A37" stroke-width="4.5" stroke-linecap="round"/>
      <path d="M6 -6H18" stroke="#BD8A37" stroke-width="4.5" stroke-linecap="round"/>
      <path d="M6 6H18" stroke="#BD8A37" stroke-width="4.5" stroke-linecap="round"/>
      <path d="M-24 34C-16 28 -8 24 0 24C8 24 16 28 24 34" stroke="#2E7B69" stroke-width="4.5" stroke-linecap="round"/>
    </g>
    <g id="foodB">
      <use href="#badge"/>
      <circle cx="0" cy="0" r="22" stroke="#16364B" stroke-width="5.5"/>
      <circle cx="0" cy="0" r="12" stroke="#16364B" stroke-width="4.5"/>
      <path d="M-38 -20V20" stroke="#BD8A37" stroke-width="5.5" stroke-linecap="round"/>
      <path d="M-44 -20H-32" stroke="#BD8A37" stroke-width="5.5" stroke-linecap="round"/>
      <path d="M-44 -6H-32" stroke="#BD8A37" stroke-width="5.5" stroke-linecap="round"/>
      <path d="M38 -22V20" stroke="#2E7B69" stroke-width="5.5" stroke-linecap="round"/>
      <ellipse cx="38" cy="-22" rx="4.5" ry="3" stroke="#2E7B69" stroke-width="4.5"/>
    </g>
  </defs>

  <g transform="translate(56 166)">
    <g transform="translate(0 0)">
      <use href="#cardB"/>
      <g transform="translate(116 108)"><use href="#worshipB"/></g>
      <text x="24" y="198" fill="#16364B" font-family="Arial, sans-serif" font-size="23" font-weight="700">Worship Team</text>
      <text x="24" y="224" fill="#617786" font-family="Arial, sans-serif" font-size="15">Centered praise symbol</text>
    </g>
    <g transform="translate(248 0)">
      <use href="#cardB"/>
      <g transform="translate(116 108)"><use href="#speakersB"/></g>
      <text x="24" y="198" fill="#16364B" font-family="Arial, sans-serif" font-size="23" font-weight="700">Speakers Team</text>
      <text x="24" y="224" fill="#617786" font-family="Arial, sans-serif" font-size="15">Podium inside badge</text>
    </g>
    <g transform="translate(496 0)">
      <use href="#cardB"/>
      <g transform="translate(116 108)"><use href="#techB"/></g>
      <text x="24" y="198" fill="#16364B" font-family="Arial, sans-serif" font-size="23" font-weight="700">Tech Team</text>
      <text x="24" y="224" fill="#617786" font-family="Arial, sans-serif" font-size="15">Screen with audio controls</text>
    </g>
    <g transform="translate(744 0)">
      <use href="#cardB"/>
      <g transform="translate(116 108)"><use href="#schoolB"/></g>
      <text x="24" y="198" fill="#16364B" font-family="Arial, sans-serif" font-size="23" font-weight="700">Sunday School Team</text>
      <text x="24" y="224" fill="#617786" font-family="Arial, sans-serif" font-size="15">Book and children arc</text>
    </g>
    <g transform="translate(992 0)">
      <use href="#cardB"/>
      <g transform="translate(116 108)"><use href="#foodB"/></g>
      <text x="24" y="198" fill="#16364B" font-family="Arial, sans-serif" font-size="23" font-weight="700">Food Team</text>
      <text x="24" y="224" fill="#617786" font-family="Arial, sans-serif" font-size="15">Plate and serving tools</text>
    </g>
  </g>
</svg>
