<svg width="1320" height="760" viewBox="0 0 1320 760" fill="none" xmlns="http://www.w3.org/2000/svg">
  <rect width="1320" height="760" rx="28" fill="#F0F6FA"/>
  <rect x="24" y="24" width="1272" height="712" rx="24" fill="#FBFEFF" stroke="#C5D8E5"/>
  <text x="56" y="84" fill="#17344A" font-family="Georgia, serif" font-size="38" font-weight="700">Team Icon Redesign E</text>
  <text x="56" y="116" fill="#6B7D8A" font-family="Arial, sans-serif" font-size="20">Minimal professional set with sharper small-size readability</text>

  <defs>
    <g id="cardE">
      <rect width="232" height="252" rx="24" fill="#FFFFFF" stroke="#C5D8E5"/>
    </g>
    <g id="worshipE">
      <circle cx="0" cy="-24" r="8.5" stroke="#17344A" stroke-width="5.5"/>
      <path d="M-12 -6C-8 -16 -4 -20 0 -20C4 -20 8 -16 12 -6" stroke="#17344A" stroke-width="5.5" stroke-linecap="round"/>
      <path d="M0 0V32" stroke="#B68A3D" stroke-width="5.5" stroke-linecap="round"/>
      <path d="M-16 14H16" stroke="#B68A3D" stroke-width="5.5" stroke-linecap="round"/>
      <path d="M-34 26C-24 12 -12 6 0 6C12 6 24 12 34 26" stroke="#2E7568" stroke-width="4.5" stroke-linecap="round"/>
    </g>
    <g id="speakersE">
      <path d="M-18 28H18" stroke="#17344A" stroke-width="5.5" stroke-linecap="round"/>
      <path d="M-12 28L-5 0H5L12 28" stroke="#17344A" stroke-width="5.5" stroke-linejoin="round"/>
      <circle cx="0" cy="-24" r="8.5" stroke="#17344A" stroke-width="5.5"/>
      <path d="M22 -8C32 -12 38 -8 38 -1" stroke="#B68A3D" stroke-width="4.5" stroke-linecap="round"/>
      <path d="M28 -20C40 -26 48 -18 48 -4" stroke="#B68A3D" stroke-width="4.5" stroke-linecap="round"/>
    </g>
    <g id="techE">
      <rect x="-28" y="-20" width="38" height="26" rx="5" stroke="#17344A" stroke-width="5.5"/>
      <path d="M-9 10V18" stroke="#17344A" stroke-width="5.5" stroke-linecap="round"/>
      <path d="M-18 24H0" stroke="#17344A" stroke-width="5.5" stroke-linecap="round"/>
      <path d="M18 -24V16" stroke="#B68A3D" stroke-width="5.5" stroke-linecap="round"/>
      <circle cx="18" cy="-4" r="7" stroke="#B68A3D" stroke-width="4.5"/>
      <path d="M36 -18V24" stroke="#2E7568" stroke-width="5.5" stroke-linecap="round"/>
      <circle cx="36" cy="10" r="7" stroke="#2E7568" stroke-width="4.5"/>
    </g>
    <g id="schoolE">
      <rect x="-26" y="-16" width="52" height="34" rx="4" stroke="#17344A" stroke-width="5.5"/>
      <path d="M0 -16V18" stroke="#17344A" stroke-width="4.5"/>
      <path d="M-16 -4H-6" stroke="#B68A3D" stroke-width="4.5" stroke-linecap="round"/>
      <path d="M-16 6H-6" stroke="#B68A3D" stroke-width="4.5" stroke-linecap="round"/>
      <path d="M6 -4H16" stroke="#B68A3D" stroke-width="4.5" stroke-linecap="round"/>
      <path d="M6 6H16" stroke="#B68A3D" stroke-width="4.5" stroke-linecap="round"/>
      <path d="M-22 28C-14 22 -7 18 0 18C7 18 14 22 22 28" stroke="#2E7568" stroke-width="4.5" stroke-linecap="round"/>
    </g>
    <g id="foodE">
      <circle cx="0" cy="0" r="19" stroke="#17344A" stroke-width="5.5"/>
      <circle cx="0" cy="0" r="10" stroke="#17344A" stroke-width="4.5"/>
      <path d="M-30 -16V16" stroke="#B68A3D" stroke-width="5.5" stroke-linecap="round"/>
      <path d="M-35 -16H-25" stroke="#B68A3D" stroke-width="5.5" stroke-linecap="round"/>
      <path d="M-35 -5H-25" stroke="#B68A3D" stroke-width="5.5" stroke-linecap="round"/>
      <path d="M30 -18V16" stroke="#2E7568" stroke-width="5.5" stroke-linecap="round"/>
      <ellipse cx="30" cy="-18" rx="4" ry="3" stroke="#2E7568" stroke-width="4.5"/>
    </g>
  </defs>

  <g transform="translate(56 166)">
    <g transform="translate(0 0)"><use href="#cardE"/><g transform="translate(116 108)"><use href="#worshipE"/></g><text x="24" y="198" fill="#17344A" font-family="Arial, sans-serif" font-size="23" font-weight="700">Worship Team</text><text x="24" y="224" fill="#6B7D8A" font-family="Arial, sans-serif" font-size="15">Minimal praise icon</text></g>
    <g transform="translate(248 0)"><use href="#cardE"/><g transform="translate(116 108)"><use href="#speakersE"/></g><text x="24" y="198" fill="#17344A" font-family="Arial, sans-serif" font-size="23" font-weight="700">Speakers Team</text><text x="24" y="224" fill="#6B7D8A" font-family="Arial, sans-serif" font-size="15">Sharper podium mark</text></g>
    <g transform="translate(496 0)"><use href="#cardE"/><g transform="translate(116 108)"><use href="#techE"/></g><text x="24" y="198" fill="#17344A" font-family="Arial, sans-serif" font-size="23" font-weight="700">Tech Team</text><text x="24" y="224" fill="#6B7D8A" font-family="Arial, sans-serif" font-size="15">Readable at small sizes</text></g>
    <g transform="translate(744 0)"><use href="#cardE"/><g transform="translate(116 108)"><use href="#schoolE"/></g><text x="24" y="198" fill="#17344A" font-family="Arial, sans-serif" font-size="23" font-weight="700">Sunday School Team</text><text x="24" y="224" fill="#6B7D8A" font-family="Arial, sans-serif" font-size="15">Book and class curve</text></g>
    <g transform="translate(992 0)"><use href="#cardE"/><g transform="translate(116 108)"><use href="#foodE"/></g><text x="24" y="198" fill="#17344A" font-family="Arial, sans-serif" font-size="23" font-weight="700">Food Team</text><text x="24" y="224" fill="#6B7D8A" font-family="Arial, sans-serif" font-size="15">Simple hospitality mark</text></g>
  </g>
</svg>
